<?xml version="1.0" encoding="UTF-8"?>
<svg viewBox="0 0 344.35565 642.18848" xmlns="http://www.w3.org/2000/svg">
 <g transform="translate(-244.33 -113.41)">
  <path d="m365.12 714.03z" fill="none" stroke="#000" stroke-width=".46971"/>
  <g transform="matrix(9.3996 0 0 11.982 -1655.9 -755.77)">
   <path d="m215.01 64.711z" fill="none" stroke="#000" stroke-width=".08679"/>
   <path d="m211.28 72.625c-8.3921-0.53775-12.724 14.003-4.125 16.562 4.5521 0.14528 8.1523-6.009 12.781-2.625 2.8343 0.76694 5.9631 4.9152 1.9688 6.5938-6.0184 3.0402-12.235 9.5374-9.7812 16.812 0.39153 2.2186 5.506 2.9698 1.4688 4.1875-5.4031 3.5852-1.7323 12.37 4.5 12.094 5.7962 1.1268 11.679-5.781 7.5312-10.812-0.91799-1.7106-4.7075-2.0718-1.5-3.4375 2.7159-2.4898-0.21037-6.84 3.6249-8.8825 4.7438-5.5219 14.187-11.255 10.531-19.867-4.5454-9.6385-18.124-9.2918-27-10.625z"/>
   <path d="m237.75 88.153c-3e-5 2.048-1.0027 4.1174-3.008 6.208-1.664 1.7494-3.328 3.4774-4.992 5.184-1.1947 1.2374-2.368 2.4747-3.52 3.712-1.4507 1.536-2.176 3.0294-2.176 4.48-2e-5 0.17068 0.02132 0.42668 0.064 0.768 0.08532 0.34135 0.12798 0.59735 0.128 0.768-2e-5 1.0667-0.49068 1.8987-1.472 2.496-0.81068 0.51201-1.7707 0.76801-2.88 0.768-1.4507 1e-5 -2.752-0.38399-3.904-1.152-1.152-0.81065-1.728-1.92-1.728-3.328-1e-5 -0.21332 0.17066-1.3226 0.512-3.328 0.34133-1.8773 1.536-3.6693 3.584-5.376 1.792-1.28 3.6053-2.5813 5.44-3.904 1.8773-1.3653 2.816-2.688 2.816-3.968-2e-5 -1.92-1.1947-3.648-3.584-5.184-2.1334-1.3653-4.224-2.048-6.272-2.048-1.1093 4e-5 -2.6027 0.61871-4.48 1.856-1.8347 1.1947-3.136 1.792-3.904 1.792-0.93867 4e-5 -1.7493-0.55463-2.432-1.664-0.55466-0.98129-0.832-1.984-0.832-3.008 0-1.4933 0.49067-3.0933 1.472-4.8 1.1947-2.0906 3.2-3.136 6.016-3.136 0.512 5e-5 3.072 0.34138 7.68 1.024 4.992 0.72538 8.768 1.7067 11.328 2.944 4.096 2.048 6.144 5.0134 6.144 8.896m-12.096 31.872c-2e-5 1.536-0.64002 2.752-1.92 3.648-1.2374 0.85333-2.6667 1.28-4.288 1.28-1.4933 0-2.8373-0.448-4.032-1.344-1.1947-0.93867-1.792-2.1333-1.792-3.584s0.59733-2.624 1.792-3.52c1.1947-0.93866 2.5387-1.408 4.032-1.408 1.5786 1e-5 2.9653 0.40534 4.16 1.216 1.3653 0.93867 2.048 2.176 2.048 3.712" fill="#02f839"/>
  </g>
 </g>
</svg>
